<?xml version="1.0" encoding="UTF-8"?>
<svg width="399px" height="293px" viewBox="0 0 399 293" version="1.1" xmlns="http://www.w3.org/2000/svg" xmlns:xlink="http://www.w3.org/1999/xlink">
    <!-- Generator: Sketch 42 (36781) - http://www.bohemiancoding.com/sketch -->
    <title>Group</title>
    <desc>Created with Sketch.</desc>
    <defs></defs>
    <g id="Page-1" stroke="none" stroke-width="1" fill="none" fill-rule="evenodd">
        <g id="Group" fill="#000000">
            <rect id="Rectangle" x="0" y="34" width="36" height="36"></rect>
            <rect id="Rectangle" x="0" y="103" width="36" height="190"></rect>
            <rect id="Rectangle" x="141" y="0" width="186" height="34"></rect>
            <rect id="Rectangle" x="71" y="34" width="328" height="36"></rect>
            <path d="M230.328113,103 L71,103 L71,293 L399,293 L399,103 L249.21369,103 C258.843125,103.818636 268.34934,105.942793 277.7325,109.3725 C290.057562,113.877523 300.044962,120.464957 307.695,129.135 L278.115,158.715 C274.03498,153.104972 268.680033,148.940014 262.05,146.22 C255.419967,143.499986 248.620035,142.14 241.65,142.14 C233.999962,142.14 226.987532,143.542486 220.6125,146.3475 C214.237468,149.152514 208.755023,153.019975 204.165,157.95 C199.574977,162.880025 196.005013,168.702466 193.455,175.4175 C190.904987,182.132534 189.63,189.48496 189.63,197.475 C189.63,205.635041 190.904987,213.114966 193.455,219.915 C196.005013,226.715034 199.532477,232.537476 204.0375,237.3825 C208.542523,242.227524 213.939969,246.009986 220.23,248.73 C226.520031,251.450014 233.404963,252.81 240.885,252.81 C249.555043,252.81 257.119968,251.110017 263.58,247.71 C270.040032,244.309983 275.22498,239.890027 279.135,234.45 L309.48,263.01 C301.48996,272.190046 291.630059,279.457473 279.9,284.8125 C268.169941,290.167527 254.655077,292.845 239.355,292.845 C225.41493,292.845 212.537559,290.550023 200.7225,285.96 C188.907441,281.369977 178.665043,274.867542 169.995,266.4525 C161.324957,258.037458 154.525025,247.965059 149.595,236.235 C144.664975,224.504941 142.2,211.585071 142.2,197.475 C142.2,183.024928 144.707475,169.935059 149.7225,158.205 C154.737525,146.474941 161.664956,136.487541 170.505,128.2425 C179.345044,119.997459 189.714941,113.665022 201.615,109.245 C210.647421,105.890101 220.218403,103.808444 230.328113,103 Z" id="Combined-Shape"></path>
        </g>
    </g>
</svg>