<?xml version="1.0" encoding="UTF-8" standalone="no"?>
<svg width="100px" height="78px" viewBox="0 0 100 78" version="1.1" xmlns="http://www.w3.org/2000/svg" xmlns:xlink="http://www.w3.org/1999/xlink" xmlns:sketch="http://www.bohemiancoding.com/sketch/ns">
    <!-- Generator: Sketch 3.4.4 (17249) - http://www.bohemiancoding.com/sketch -->
    <title>Shape</title>
    <desc>Created with Sketch.</desc>
    <defs></defs>
    <g id="Page-1" stroke="none" stroke-width="1" fill="none" fill-rule="evenodd" sketch:type="MSPage">
        <g id="logo" sketch:type="MSLayerGroup" fill-opacity="0.8" fill="#000000">
            <path d="M95.207,77.516 L4.82,77.516 C2.234,77.516 0.13,75.412 0.13,72.826 L0.13,12.846 C0.13,10.26 2.234,8.156 4.82,8.156 L29.407,8.156 C30.307,8.156 31.771,7.491 32.363,6.815 L35.099,3.689 C36.452,2.145 39.017,0.981 41.067,0.981 L58.707,0.981 C60.758,0.981 63.323,2.145 64.676,3.689 L67.41,6.815 C68.003,7.492 69.468,8.156 70.367,8.156 L95.207,8.156 C97.793,8.156 99.897,10.26 99.897,12.846 L99.897,72.825 C99.897,75.412 97.793,77.516 95.207,77.516 L95.207,77.516 Z M4.82,12.155 C4.446,12.155 4.13,12.471 4.13,12.845 L4.13,72.824 C4.13,73.199 4.446,73.514 4.82,73.514 L95.207,73.514 C95.581,73.514 95.897,73.199 95.897,72.824 L95.897,12.846 C95.897,12.471 95.581,12.156 95.207,12.156 L70.367,12.156 C68.316,12.156 65.752,10.993 64.4,9.449 L61.666,6.323 C61.072,5.647 59.606,4.981 58.707,4.981 L41.067,4.981 C40.168,4.981 38.703,5.647 38.109,6.324 L35.374,9.449 C34.024,10.992 31.459,12.156 29.407,12.156 L4.82,12.156 L4.82,12.155 Z" id="Shape" sketch:type="MSShapeGroup"></path>
        </g>
    </g>
</svg>