<svg width="100" height="78" viewBox="0 0 100 78" xmlns="http://www.w3.org/2000/svg"><title>logo</title><g fill-opacity=".8" fill="#000" fill-rule="evenodd"><path d="M95.207 77.516H4.82a4.695 4.695 0 0 1-4.69-4.69v-59.98a4.695 4.695 0 0 1 4.69-4.69h24.587c.9 0 2.364-.665 2.956-1.34L35.1 3.688C36.45 2.144 39.016.98 41.066.98h17.64c2.05 0 4.616 1.165 5.97 2.71l2.733 3.125c.593.677 2.058 1.34 2.957 1.34h24.84a4.695 4.695 0 0 1 4.69 4.69v59.98a4.696 4.696 0 0 1-4.69 4.69zM4.82 12.156a.7.7 0 0 0-.69.69v59.978a.7.7 0 0 0 .69.69h90.387a.7.7 0 0 0 .69-.69V12.846a.7.7 0 0 0-.69-.69h-24.84c-2.05 0-4.615-1.163-5.967-2.707l-2.734-3.127c-.594-.676-2.06-1.342-2.96-1.342h-17.64c-.898 0-2.363.667-2.957 1.344L35.373 9.45c-1.35 1.542-3.915 2.706-5.967 2.706H4.82z"/><path d="M50.013 66.914c-12.808 0-23.228-10.42-23.228-23.228 0-12.807 10.42-23.226 23.228-23.226 12.81 0 23.23 10.42 23.23 23.226 0 12.808-10.422 23.228-23.23 23.228zm0-42.453c-10.603 0-19.228 8.626-19.228 19.227 0 10.603 8.625 19.228 19.228 19.228 10.604 0 19.23-8.625 19.23-19.228 0-10.602-8.627-19.226-19.23-19.226zM97.13 46.234H83.8a2 2 0 0 1 0-4h13.33a2 2 0 0 1 0 4zM17.125 46.234H3.013a2 2 0 0 1 0-4h14.112a2 2 0 0 1 0 4z"/><path d="M50.015 56.187c-6.892 0-12.5-5.606-12.5-12.498 0-6.893 5.608-12.5 12.5-12.5 6.89 0 12.497 5.606 12.497 12.498 0 6.892-5.607 12.5-12.497 12.5zm0-20.997c-4.687 0-8.5 3.812-8.5 8.498 0 4.687 3.814 8.498 8.5 8.498s8.497-3.812 8.497-8.498-3.812-8.498-8.497-8.498z"/></g></svg>