<svg width="100" height="78" viewBox="0 0 100 78" xmlns="http://www.w3.org/2000/svg"><title>Shape</title><path d="M95.207 77.516H4.82a4.695 4.695 0 0 1-4.69-4.69v-59.98a4.695 4.695 0 0 1 4.69-4.69h24.587c.9 0 2.364-.665 2.956-1.341l2.736-3.126C36.452 2.145 39.017.981 41.067.981h17.64c2.051 0 4.616 1.164 5.969 2.708l2.734 3.126c.593.677 2.058 1.341 2.957 1.341h24.84a4.695 4.695 0 0 1 4.69 4.69v59.979a4.696 4.696 0 0 1-4.69 4.691zM4.82 12.155a.7.7 0 0 0-.69.69v59.979c0 .375.316.69.69.69h90.387c.374 0 .69-.315.69-.69V12.846a.699.699 0 0 0-.69-.69h-24.84c-2.051 0-4.615-1.163-5.967-2.707l-2.734-3.126c-.594-.676-2.06-1.342-2.959-1.342h-17.64c-.899 0-2.364.666-2.958 1.343l-2.735 3.125c-1.35 1.543-3.915 2.707-5.967 2.707H4.82v-.001z" fill-opacity=".8" fill="#000" fill-rule="evenodd"/></svg>