<svg width="100" height="78" viewBox="0 0 100 78" xmlns="http://www.w3.org/2000/svg"><title>Shape</title><path d="M95.207 77.516H4.82a4.695 4.695 0 0 1-4.69-4.69v-59.98a4.695 4.695 0 0 1 4.69-4.69h24.587c.9 0 2.364-.665 2.956-1.34L35.1 3.688C36.45 2.144 39.016.98 41.066.98h17.64c2.05 0 4.616 1.165 5.97 2.71l2.733 3.125c.593.677 2.058 1.34 2.957 1.34h24.84a4.695 4.695 0 0 1 4.69 4.69v59.98a4.696 4.696 0 0 1-4.69 4.69zM4.82 12.156a.7.7 0 0 0-.69.69v59.978a.7.7 0 0 0 .69.69h90.387a.7.7 0 0 0 .69-.69V12.846a.7.7 0 0 0-.69-.69h-24.84c-2.05 0-4.615-1.163-5.967-2.707l-2.734-3.127c-.594-.676-2.06-1.342-2.96-1.342h-17.64c-.898 0-2.363.667-2.957 1.344L35.373 9.45c-1.35 1.542-3.915 2.706-5.967 2.706H4.82z" fill-opacity=".8" fill="#000" fill-rule="evenodd"/></svg>