<svg width="100" height="78" viewBox="0 0 100 78" xmlns="http://www.w3.org/2000/svg"><title>logo</title><g fill-opacity=".8" fill="#000" fill-rule="evenodd"><path d="M95.207 77.516H4.82a4.695 4.695 0 0 1-4.69-4.69v-59.98a4.695 4.695 0 0 1 4.69-4.69h24.587c.9 0 2.364-.665 2.956-1.341l2.736-3.126C36.452 2.145 39.017.981 41.067.981h17.64c2.051 0 4.616 1.164 5.969 2.708l2.734 3.126c.593.677 2.058 1.341 2.957 1.341h24.84a4.695 4.695 0 0 1 4.69 4.69v59.979a4.696 4.696 0 0 1-4.69 4.691zM4.82 12.155a.7.7 0 0 0-.69.69v59.979c0 .375.316.69.69.69h90.387c.374 0 .69-.315.69-.69V12.846a.699.699 0 0 0-.69-.69h-24.84c-2.051 0-4.615-1.163-5.967-2.707l-2.734-3.126c-.594-.676-2.06-1.342-2.959-1.342h-17.64c-.899 0-2.364.666-2.958 1.343l-2.735 3.125c-1.35 1.543-3.915 2.707-5.967 2.707H4.82v-.001z"/><path d="M50.013 66.914c-12.808 0-23.228-10.42-23.228-23.228 0-12.807 10.42-23.226 23.228-23.226 12.809 0 23.229 10.419 23.229 23.226 0 12.808-10.421 23.228-23.229 23.228zm0-42.453c-10.603 0-19.228 8.625-19.228 19.226 0 10.603 8.625 19.228 19.228 19.228 10.604 0 19.229-8.625 19.229-19.228 0-10.602-8.626-19.226-19.229-19.226zM97.129 46.234h-13.33a2 2 0 0 1 0-4h13.33a2 2 0 0 1 0 4zM17.125 46.234H3.013a2 2 0 0 1 0-4h14.112a2 2 0 0 1 0 4z"/><path d="M50.015 56.187c-6.892 0-12.499-5.606-12.499-12.498 0-6.892 5.607-12.499 12.499-12.499 6.891 0 12.497 5.606 12.497 12.498 0 6.892-5.607 12.499-12.497 12.499zm0-20.997c-4.687 0-8.499 3.812-8.499 8.498 0 4.687 3.813 8.498 8.499 8.498s8.497-3.812 8.497-8.498-3.812-8.498-8.497-8.498z"/></g></svg>