<svg width="399" height="293" viewBox="0 0 399 293" xmlns="http://www.w3.org/2000/svg"><title>Group</title><g fill="#000" fill-rule="evenodd"><path d="M0 34h36v36H0zM0 103h36v190H0zM141 0h186v34H141zM71 34h328v36H71zM230.328 103H71v190h328V103H249.214c9.63.819 19.135 2.943 28.519 6.373 12.325 4.505 22.312 11.092 29.962 19.762l-29.58 29.58c-4.08-5.61-9.435-9.775-16.065-12.495-6.63-2.72-13.43-4.08-20.4-4.08-7.65 0-14.662 1.402-21.037 4.208-6.376 2.805-11.858 6.672-16.448 11.602-4.59 4.93-8.16 10.752-10.71 17.468-2.55 6.715-3.825 14.067-3.825 22.057 0 8.16 1.275 15.64 3.825 22.44 2.55 6.8 6.077 12.622 10.582 17.468 4.506 4.845 9.903 8.627 16.193 11.347 6.29 2.72 13.175 4.08 20.655 4.08 8.67 0 16.235-1.7 22.695-5.1 6.46-3.4 11.645-7.82 15.555-13.26l30.345 28.56c-7.99 9.18-17.85 16.447-29.58 21.803-11.73 5.355-25.245 8.032-40.545 8.032-13.94 0-26.817-2.295-38.632-6.885-11.816-4.59-22.058-11.092-30.728-19.507-8.67-8.416-15.47-18.488-20.4-30.218-4.93-11.73-7.395-24.65-7.395-38.76 0-14.45 2.507-27.54 7.523-39.27 5.015-11.73 11.942-21.717 20.782-29.963 8.84-8.245 19.21-14.577 31.11-18.997 9.032-3.355 18.603-5.437 28.713-6.245z"/></g></svg>